{"title":"A Very Harold &amp; Kumar 3D Christmas 2011 TS XviD-26K","uid":6832299,"size":1329001961,"categoryP":"video","categoryS":"movies","magnet":"?xt=urn:btih:6bfd22401d41a8b7d2270cdedd64db3bfd5fb2d6&amp;dn=A+Very+Harold+%26amp%3B+Kumar+3D+Christmas+2011+TS+XviD-26K&amp;tr=udp%3A%2F%2Ftracker.openbittorrent.com%3A80&amp;tr=udp%3A%2F%2Fopen.demonii.com%3A1337&amp;tr=udp%3A%2F%2Ftracker.coppersurfer.tk%3A6969&amp;tr=udp%3A%2F%2Fexodus.desync.com%3A6969","seeders":2,"leechers":0,"uploader":"TvTeam","files":6,"time":1321908973,"description":". \n &lt;a href=&quot;\nhttp://www.torrenting.com&quot; rel=&quot;nofollow&quot; target=&quot;_NEW&quot;&gt;\nhttp://www.torrenting.com&lt;/a&gt;          :     Once &amp; For all ;)\n\n\n               www . Torrenting . Com \n\n(((((((((((((= Enjoy No RAR releases =))))))))))))))))))))\n\n\n...................................NFO:....................................\n\n.[img]http://www.hotimg.com/direct/yvebYnj.jpg[/img]\n[code]\n\nA Very Harold &amp; Kumar 3D Christmas 2011 TS XviD-26K\n\nIMDb: http://www.imdb.com/title/tt1268799/\n\nPlot:\nSix years after their Guantanamo Bay adventure, stoner buds Harold Lee and Kumar Patel cause a holiday fracas by inadvertently burning down Harold's father-in-law's prize Christmas tree.\n\nSource:\nMiSTERE THNXS\n\nNotes:\nvideo is 3d i just added few brightness and sharpness filters :) so enjoy and it is in sync!&quot;\n\n\nVideo\nID                                       : 0\nFormat                                   : MPEG-4 Visual\nFormat profile                           : Advanced Simple@L5\nFormat settings, BVOP                    : 2\nFormat settings, QPel                    : No\nFormat settings, GMC                     : No warppoints\nFormat settings, Matrix                  : Default (H.263)\nCodec ID                                 : XVID\nCodec ID/Hint                            : XviD\nDuration                                 : 1h 20mn\nBit rate                                 : 1 900 Kbps\nWidth                                    : 720 pixels\nHeight                                   : 304 pixels\nDisplay aspect ratio                     : 2.35:1\nFrame rate                               : 24.000 fps\nColor space                              : YUV\nChroma subsampling                       : 4:2:0\nBit depth                                : 8 bits\nScan type                                : Progressive\nCompression mode                         : Lossy\nBits/(Pixel*Frame)                       : 0.362\nStream size                              : 1.07 GiB (88%)\nWriting library                          : XviD 63\n\nAudio\nID                                       : 1\nFormat                                   : MPEG Audio\nFormat version                           : Version 1\nFormat profile                           : Layer 3\nMode                                     : Joint stereo\nMode extension                           : MS Stereo\nCodec ID                                 : 55\nCodec ID/Hint                            : MP3\nDuration                                 : 1h 20mn\nBit rate mode                            : Constant\nBit rate                                 : 256 Kbps\nChannel(s)                               : 2 channels\nSampling rate                            : 44.1 KHz\nCompression mode                         : Lossy\nStream size                              : 148 MiB (12%)\nAlignment                                : Split accross interleaves\nInterleave, duration                     : 26 ms (0.63 video frame)\n\n[/code]\nScreens:\n[img]http://www.hotimg.com/direct/VrX6sVa.png[/img]\n[img]http://www.hotimg.com/direct/FcC9KjR.png[/img]\n[img]http://www.hotimg.com/direct/Pk4aTP4.png[/img]\n[img]http://www.hotimg.com/direct/ABuHfBr.png[/img]\n[img]http://www.hotimg.com/direct/dEPga3h.png[/img]","torrent":{"xt":"urn:btih:6bfd22401d41a8b7d2270cdedd64db3bfd5fb2d6","amp;dn":"A+Very+Harold+%26amp%3B+Kumar+3D+Christmas+2011+TS+XviD-26K","amp;tr":["udp%3A%2F%2Ftracker.openbittorrent.com%3A80","udp%3A%2F%2Fopen.demonii.com%3A1337","udp%3A%2F%2Ftracker.coppersurfer.tk%3A6969","udp%3A%2F%2Fexodus.desync.com%3A6969"],"infoHash":"6bfd22401d41a8b7d2270cdedd64db3bfd5fb2d6","infoHashBuffer":{"type":"Buffer","data":[107,253,34,64,29,65,168,183,210,39,12,222,221,100,219,59,253,95,178,214]},"announce":[],"urlList":[]}}